<svg width="12" height="12" viewBox="0 0 12 12" fill="none" xmlns="http://www.w3.org/2000/svg">
<g clip-path="url(#clip0_6600_101327)">
<path d="M10.3532 5.99999C10.3532 3.59726 8.40295 1.64704 6.00023 1.64704C3.59751 1.64704 1.64729 3.59726 1.64729 5.99999C1.64729 8.40271 3.59751 10.3529 6.00023 10.3529C8.40295 10.3529 10.3532 8.40271 10.3532 5.99999ZM6.35777 7.99999V8.70587H5.64729V7.99999H6.35777ZM5.6096 6.47057L5.85087 6.13556H5.85179C5.85335 6.13502 5.85609 6.13375 5.86006 6.13234C5.86808 6.12949 5.88105 6.12491 5.89775 6.11855C5.93119 6.10581 5.98027 6.08616 6.03975 6.05973C6.15995 6.00631 6.31759 5.92735 6.47266 5.82397C6.80428 5.60289 7.02137 5.34203 7.02137 5.05881V5.05375C7.02484 4.80569 6.93766 4.56381 6.77642 4.37453C6.61335 4.18312 6.39063 4.05625 6.14315 4.01377C5.89522 3.97127 5.64099 4.01738 5.4267 4.14383C5.21151 4.27082 5.04849 4.46859 4.96301 4.70725L4.84398 5.03951L4.17946 4.80146L4.29848 4.4692C4.43888 4.07726 4.70885 3.74766 5.06778 3.53583C5.42759 3.32349 5.85133 3.24758 6.26218 3.318C6.67338 3.38849 7.04383 3.60011 7.31365 3.91681C7.58533 4.23574 7.73317 4.64372 7.72725 5.06386L7.72679 5.0634C7.72452 5.71883 7.23759 6.16237 6.8642 6.41129C6.66634 6.5432 6.47101 6.64073 6.32652 6.70495C6.3229 6.70655 6.31904 6.70752 6.31549 6.70908V7.1907H5.6096V6.47057ZM11.0591 5.99999C11.0591 8.79256 8.7928 11.0588 6.00023 11.0588C3.20766 11.0588 0.941406 8.79256 0.941406 5.99999C0.941406 3.20741 3.20766 0.941162 6.00023 0.941162C8.7928 0.941162 11.0591 3.20741 11.0591 5.99999Z" fill="#475569"/>
</g>
<defs>
<clipPath id="clip0_6600_101327">
<rect width="12" height="12" fill="white"/>
</clipPath>
</defs>
</svg>
