<svg width="18" height="18" viewBox="0 0 18 18" fill="none" xmlns="http://www.w3.org/2000/svg">
<rect width="18" height="18" rx="9" fill="#05C128"/>
<g clip-path="url(#clip0_5808_221350)">
<path d="M12.9988 5.75344C12.9988 6.44582 12.4296 7.00687 11.7279 7.00687C11.0262 7.00687 10.457 6.44549 10.457 5.75344C10.457 5.06138 11.0259 4.5 11.7279 4.5C12.4299 4.5 12.9988 5.06138 12.9988 5.75344Z" fill="white"/>
<path d="M8.382 6.82935C6.51407 6.82935 5 8.32262 5 10.1649C5 12.0072 6.51407 13.5004 8.382 13.5004C10.2499 13.5004 11.7637 12.0072 11.7637 10.1649C11.7637 8.32262 10.2496 6.82935 8.382 6.82935ZM8.382 8.70867C9.19605 8.70867 9.85816 9.36169 9.85816 10.1646C9.85816 10.9674 9.19572 11.6205 8.382 11.6205C7.56828 11.6205 6.90583 10.9674 6.90583 10.1646C6.90583 9.36169 7.56794 8.70867 8.382 8.70867Z" fill="white"/>
<path d="M8.382 6.82935C6.51407 6.82935 5 8.32262 5 10.1649C5 12.0072 6.51407 13.5004 8.382 13.5004C10.2499 13.5004 11.7637 12.0072 11.7637 10.1649C11.7637 8.32262 10.2496 6.82935 8.382 6.82935ZM8.382 8.70867C9.19605 8.70867 9.85816 9.36169 9.85816 10.1646C9.85816 10.9674 9.19572 11.6205 8.382 11.6205C7.56828 11.6205 6.90583 10.9674 6.90583 10.1646C6.90583 9.36169 7.56794 8.70867 8.382 8.70867Z" fill="white"/>
<path d="M12.9988 5.75344C12.9988 6.44582 12.4296 7.00687 11.7279 7.00687C11.0262 7.00687 10.457 6.44549 10.457 5.75344C10.457 5.06138 11.0259 4.5 11.7279 4.5C12.4299 4.5 12.9988 5.06138 12.9988 5.75344Z" fill="white"/>
</g>
<defs>
<clipPath id="clip0_5808_221350">
<rect width="8" height="9" fill="white" transform="translate(5 4.5)"/>
</clipPath>
</defs>
</svg>
