<svg width="18" height="18" viewBox="0 0 18 18" fill="none" xmlns="http://www.w3.org/2000/svg">
<rect width="18" height="18" rx="9" fill="#F1F5F9"/>
<path d="M6.10558 14C5.49568 14 5 13.5146 5 12.9173C5 12.4031 5.37307 11.9567 5.88656 11.8561C6.42311 11.7504 6.8098 11.2886 6.8098 10.7518C6.8098 10.2151 6.42416 9.75431 5.88656 9.64758C5.37307 9.54598 5 9.09955 5 8.58641V7.24815C5 6.66215 5.48625 6.17672 6.08357 6.16544C6.70081 6.15415 7.19963 5.66667 7.21116 5.06117C7.22269 4.47619 7.71837 4 8.31674 4H9.68326C10.2816 4 10.7773 4.47619 10.7888 5.06117C10.8004 5.66564 11.2981 6.15312 11.9164 6.16544C12.5138 6.17672 13 6.66215 13 7.24815V8.58641C13 9.17241 12.5138 9.65784 11.9164 9.66913C11.2992 9.68042 10.8004 10.1679 10.7888 10.7734C10.7773 11.3584 10.2816 11.8346 9.68326 11.8346H8.36075C7.73408 11.8346 7.22374 12.3251 7.21116 12.9388C7.19963 13.5238 6.70396 14 6.10558 14ZM8.36075 6.16646C7.7257 6.16646 7.21116 6.67036 7.21116 7.29228V8.54433C7.21116 9.16626 7.7257 9.67016 8.36075 9.67016H9.63925C10.2743 9.67016 10.7888 9.16626 10.7888 8.54433V7.29228C10.7888 6.67036 10.2743 6.16646 9.63925 6.16646H8.36075Z" fill="#010614"/>
</svg>
