<svg width="18" height="18" viewBox="0 0 18 18" fill="none" xmlns="http://www.w3.org/2000/svg">
<rect width="18" height="18" rx="9" fill="#20D562"/>
<g clip-path="url(#clip0_5808_221358)">
<path d="M12.7498 12.7463C12.7137 12.8057 12.6659 12.8572 12.6101 12.8983C12.5537 12.9393 12.49 12.9687 12.4226 12.9853C12.3552 13.0012 12.2848 13.0043 12.2161 12.9932C12.1475 12.9822 12.082 12.9583 12.0225 12.9215C10.0313 11.7053 7.52411 11.4302 4.57213 12.1042C4.4355 12.1355 4.29212 12.1109 4.17326 12.0362C4.0544 11.9621 3.97046 11.8432 3.93921 11.7066C3.92389 11.6386 3.92144 11.5687 3.93308 11.5001C3.94472 11.4315 3.96984 11.3665 4.00661 11.3077C4.04398 11.2489 4.09177 11.198 4.14875 11.1576C4.20512 11.1172 4.26945 11.089 4.33685 11.0736C7.56761 10.3353 10.3388 10.6533 12.5746 12.0197C12.8239 12.1722 12.903 12.4976 12.7498 12.7463Z" fill="#020617"/>
<path d="M13.7886 10.4372C13.5974 10.7484 13.19 10.8464 12.8793 10.6553C10.5995 9.25405 7.12427 8.84844 4.42779 9.66701C4.07793 9.77239 3.70848 9.5751 3.60248 9.22586C3.55163 9.05798 3.57001 8.87724 3.65272 8.72284C3.73544 8.56782 3.87574 8.45264 4.04362 8.40117C7.12366 7.46681 10.953 7.91959 13.5711 9.52854C13.8817 9.7197 13.9804 10.1265 13.7886 10.4372Z" fill="#020617"/>
<path d="M15.0673 7.46302C15.0519 7.56656 15.017 7.66521 14.9637 7.75528C14.7407 8.13208 14.253 8.25646 13.8768 8.03221C11.1429 6.40856 6.63285 6.25968 4.02337 7.0519C3.60428 7.17873 3.1613 6.94222 3.03386 6.52314C2.9732 6.32156 2.99465 6.10467 3.09329 5.91902C3.19255 5.73337 3.36166 5.5949 3.56262 5.53363C6.55871 4.62378 11.5393 4.79962 14.6862 6.66774C14.7762 6.72104 14.854 6.7915 14.9165 6.87483C14.979 6.95816 15.025 7.05312 15.0507 7.15422C15.0764 7.2547 15.082 7.36009 15.0673 7.46302Z" fill="#020617"/>
</g>
<defs>
<clipPath id="clip0_5808_221358">
<rect width="12.0751" height="8" fill="white" transform="translate(3 5)"/>
</clipPath>
</defs>
</svg>
