<svg width="18" height="18" viewBox="0 0 18 18" fill="none" xmlns="http://www.w3.org/2000/svg">
<rect width="18" height="18" rx="9" fill="#EA0A36"/>
<path d="M13.9004 6.72619C13.9004 6.72619 13.8027 5.94196 13.502 5.59761C13.1211 5.1444 12.6953 5.14218 12.5 5.11552C11.1016 5 9.00195 5 9.00195 5H8.99805C8.99805 5 6.89844 5 5.5 5.11552C5.30469 5.14218 4.87891 5.1444 4.49805 5.59761C4.19727 5.94196 4.10156 6.72619 4.10156 6.72619C4.10156 6.72619 4 7.64815 4 8.5679V9.42988C4 10.3496 4.09961 11.2716 4.09961 11.2716C4.09961 11.2716 4.19727 12.0558 4.49609 12.4002C4.87695 12.8534 5.37695 12.8378 5.59961 12.8867C6.40039 12.9733 9 13 9 13C9 13 11.1016 12.9956 12.5 12.8823C12.6953 12.8556 13.1211 12.8534 13.502 12.4002C13.8027 12.0558 13.9004 11.2716 13.9004 11.2716C13.9004 11.2716 14 10.3518 14 9.42988V8.5679C14 7.64815 13.9004 6.72619 13.9004 6.72619ZM7.9668 10.4763V7.27937L10.668 8.88337L7.9668 10.4763Z" fill="white"/>
</svg>
