<svg width="18" height="18" viewBox="0 0 18 18" fill="none" xmlns="http://www.w3.org/2000/svg">
<path d="M16.3125 4.5V13.5L15.6277 14.0493L9.27466 12.6372L9.24023 12.7566C9.1413 13.0983 8.98392 13.4394 8.74072 13.741L8.73999 13.7402C8.51493 14.0285 8.23581 14.2696 7.91382 14.4536L7.90942 14.4558C7.59522 14.6314 7.24145 14.7536 6.87378 14.8008C6.50563 14.8479 6.12805 14.8192 5.76855 14.7151C5.42682 14.6162 5.08577 14.4588 4.78418 14.2156V14.2148C4.49612 13.9899 4.25542 13.7111 4.07153 13.3894V13.3887C3.88086 13.0623 3.77007 12.7056 3.72437 12.3494C3.68453 12.0386 3.69899 11.721 3.76685 11.4133L2.12769 11.0493L1.6875 10.5V8.25L2.09912 7.70801L15.5991 3.95801L16.3125 4.5ZM4.86621 11.6572C4.82668 11.8372 4.8172 12.0233 4.84058 12.2058C4.86234 12.3756 4.90594 12.5368 4.97168 12.6833L5.04492 12.8247L5.04858 12.8306C5.13416 12.9803 5.23753 13.113 5.35693 13.2261L5.48218 13.333L5.49097 13.3396C5.65429 13.4713 5.85319 13.5687 6.0813 13.6348C6.2917 13.6957 6.5142 13.7124 6.73096 13.6846C6.94747 13.6568 7.1627 13.5831 7.35791 13.4744C7.55657 13.3604 7.7242 13.215 7.85742 13.043L7.86475 13.0342C7.9964 12.8709 8.09387 12.6719 8.15991 12.4438L8.17456 12.3926L4.86621 11.6572ZM2.8125 8.677V10.0481L15.1875 12.7983V5.23975L2.8125 8.677Z" fill="#020617"/>
</svg>
