<svg width="18" height="18" viewBox="0 0 18 18" fill="none" xmlns="http://www.w3.org/2000/svg">
<path d="M16.3125 2.24976V12.1646H16.3074C16.2223 13.6432 15.0003 14.8123 13.5 14.8123C11.9443 14.8123 10.6875 13.5554 10.6875 11.9998C10.6875 10.4441 11.9443 9.18726 13.5 9.18726C14.1335 9.18726 14.7178 9.39536 15.1875 9.74756V5.90967L7.3125 7.22363V13.6426H7.30884C7.2347 15.1316 6.00776 16.3123 4.5 16.3123C2.94434 16.3123 1.6875 15.0554 1.6875 13.4998C1.6875 11.9441 2.94434 10.6873 4.5 10.6873C5.13354 10.6873 5.71778 10.8954 6.1875 11.2476V3.74976L6.65771 3.19458L15.6577 1.69458L16.3125 2.24976ZM7.3125 4.22656V6.08325L15.1875 4.76929V2.91406L7.3125 4.22656ZM2.8125 13.4998C2.8125 14.4341 3.56566 15.1873 4.5 15.1873C5.43434 15.1873 6.1875 14.4341 6.1875 13.4998C6.1875 12.5654 5.43434 11.8123 4.5 11.8123C3.56566 11.8123 2.8125 12.5654 2.8125 13.4998ZM11.8125 11.9998C11.8125 12.9341 12.5657 13.6873 13.5 13.6873C14.4343 13.6873 15.1875 12.9341 15.1875 11.9998C15.1875 11.0654 14.4343 10.3123 13.5 10.3123C12.5657 10.3123 11.8125 11.0654 11.8125 11.9998Z" fill="#020617"/>
</svg>
