<svg width="18" height="18" viewBox="0 0 18 18" fill="none" xmlns="http://www.w3.org/2000/svg">
<path d="M10.6875 9.052C10.6873 8.0766 9.92212 7.3125 9 7.3125C8.07788 7.3125 7.31267 8.0766 7.3125 9.052C7.3125 10.0276 8.07778 10.7922 9 10.7922C9.92222 10.7922 10.6875 10.0276 10.6875 9.052ZM11.8125 9.052C11.8125 10.6244 10.5678 11.9172 9 11.9172C7.43222 11.9172 6.1875 10.6244 6.1875 9.052C6.18767 7.4798 7.43233 6.1875 9 6.1875C10.5677 6.1875 11.8123 7.4798 11.8125 9.052Z" fill="#020617"/>
<path d="M10.1176 3C10.1176 2.75054 10.0188 2.51424 9.84518 2.34521L9.84005 2.34009C9.65827 2.15833 9.42524 2.0625 9.18014 2.0625H8.85055C8.60109 2.0625 8.36479 2.16136 8.19576 2.33496L8.19064 2.34009C8.00885 2.52188 7.91305 2.75488 7.91305 3V3.13477C7.91305 3.49148 7.82142 3.85544 7.63033 4.17407C7.4536 4.46863 7.20088 4.73643 6.88253 4.91821L6.56026 5.10645L6.55953 5.10571C6.24251 5.29406 5.88175 5.38477 5.52755 5.38477C5.17983 5.38473 4.82591 5.29737 4.51314 5.11597L4.40035 5.05664L4.38863 5.05005C4.16549 4.92393 3.91177 4.88872 3.67159 4.95337C3.42691 5.02125 3.2246 5.17725 3.10763 5.38403L3.1047 5.38916L2.9399 5.67407C2.81635 5.89533 2.78209 6.14601 2.84542 6.38379L2.87472 6.47388C2.95274 6.679 3.09531 6.84726 3.27682 6.94995L3.31197 6.97192L3.42477 7.04663C3.72911 7.2279 3.97135 7.48787 4.14254 7.77319C4.3323 8.08948 4.42525 8.44536 4.42525 8.80518V9.1875C4.42525 9.54171 4.33456 9.90246 4.1462 10.2195C3.96266 10.5356 3.70716 10.7915 3.40206 10.9746L3.29 11.042L3.28487 11.0449C3.06558 11.1736 2.91141 11.3761 2.84542 11.6162C2.78838 11.824 2.80614 12.0461 2.89523 12.241L2.93771 12.323L2.9399 12.3259L3.1047 12.6108C3.23347 12.8285 3.43484 12.9817 3.67379 13.0474C3.91128 13.1126 4.16769 13.08 4.38058 12.9551L4.40035 12.9434L4.51314 12.884C4.82591 12.7026 5.17983 12.6153 5.52755 12.6152C5.88163 12.6152 6.24259 12.7053 6.55953 12.8936H6.56026L6.88326 13.0811L6.88985 13.0854C7.18221 13.2609 7.44795 13.5109 7.6296 13.8259H7.63033C7.82142 14.1446 7.91305 14.5085 7.91305 14.8652V15C7.91305 15.2182 7.98811 15.4263 8.12325 15.5881L8.18551 15.6548L8.19064 15.6599C8.3724 15.8416 8.60549 15.9375 8.85055 15.9375H9.18014C9.4296 15.9375 9.66589 15.8386 9.83492 15.665L9.84005 15.6599C10.0218 15.4781 10.1176 15.2451 10.1176 15V14.8652C10.1176 14.5085 10.2092 14.1446 10.4004 13.8259C10.5771 13.5314 10.8291 13.2628 11.1474 13.0811L11.4697 12.8936C11.7868 12.705 12.1481 12.6153 12.5024 12.6152C12.8502 12.6152 13.2047 12.7025 13.5175 12.884L13.6421 12.95C13.8652 13.0761 14.1189 13.1113 14.3591 13.0466C14.607 12.9798 14.8041 12.8264 14.9231 12.616L15.0879 12.3237V12.323C15.2135 12.1007 15.249 11.8483 15.1853 11.6089C15.1177 11.3629 14.9608 11.1594 14.7531 11.042V11.0413L14.6528 10.9885L14.6352 10.979C14.3228 10.7976 14.063 10.5412 13.8838 10.2195C13.6989 9.9009 13.6054 9.54862 13.6054 9.1875V8.8125C13.6054 8.45817 13.6953 8.09688 13.8838 7.77979C14.0673 7.46376 14.3236 7.20843 14.6286 7.02539L14.7407 6.95801L14.7458 6.95508C14.965 6.82635 15.1193 6.6239 15.1853 6.38379C15.2505 6.14629 15.2179 5.8899 15.093 5.677L15.0908 5.67407L14.9275 5.39209C14.7987 5.17282 14.5963 5.01857 14.3562 4.95264C14.1188 4.8875 13.8629 4.92007 13.6501 5.04492L13.6296 5.05664L13.5175 5.11597C13.2047 5.29747 12.8502 5.38477 12.5024 5.38477C12.148 5.38471 11.7868 5.29438 11.4697 5.10571L11.1474 4.91895L11.1408 4.91455C10.8447 4.73683 10.5748 4.48318 10.393 4.16235V4.16162C10.2069 3.84595 10.1176 3.48688 10.1176 3.13477V3ZM11.2426 3.13477C11.2426 3.30285 11.2862 3.46421 11.365 3.59546L11.3723 3.60791C11.4454 3.73688 11.5659 3.85775 11.7194 3.94995L12.0351 4.13379L12.0424 4.13745C12.1736 4.21612 12.3344 4.25971 12.5024 4.25977C12.6705 4.25977 12.8318 4.21619 12.9631 4.13745L12.988 4.12354L13.1008 4.06348V4.06421C13.5738 3.79371 14.134 3.72512 14.6543 3.86792C15.1133 3.99397 15.5097 4.27003 15.7866 4.65234L15.8979 4.823L15.8994 4.82593L16.0649 5.11084H16.0642C16.3428 5.5873 16.4144 6.15476 16.27 6.68115C16.1263 7.20439 15.7871 7.64547 15.3186 7.92188L15.3193 7.92261L15.2072 7.98999C15.0624 8.07692 14.9429 8.19632 14.8564 8.34521L14.8527 8.35181C14.774 8.48309 14.7304 8.64434 14.7304 8.8125V9.1875C14.7304 9.35112 14.7716 9.50855 14.8564 9.65479L14.8637 9.66724C14.9381 9.80281 15.0481 9.9161 15.1933 10.002L15.2951 10.0562L15.3068 10.0627C15.7891 10.3353 16.1274 10.7919 16.27 11.3108L16.2707 11.3137C16.416 11.8533 16.3308 12.4092 16.0671 12.876L16.0678 12.8767L15.9023 13.1689C15.6313 13.6484 15.1833 13.9896 14.6513 14.1328C14.1162 14.2769 13.5651 14.1944 13.1008 13.9358V13.9365L12.988 13.8765L12.9631 13.8625C12.8318 13.7838 12.6705 13.7402 12.5024 13.7402C12.3344 13.7403 12.1736 13.7839 12.0424 13.8625L12.0359 13.8662H12.0351L11.7129 14.0537L11.7077 14.0566C11.5786 14.1298 11.4572 14.2507 11.365 14.4045C11.2862 14.5358 11.2426 14.6971 11.2426 14.8652V15C11.2426 15.5475 11.0249 16.0618 10.6399 16.4495L10.6406 16.4502C10.6396 16.4512 10.6379 16.4514 10.6369 16.4524C10.6362 16.4531 10.6362 16.4546 10.6355 16.4553L10.6347 16.4546C10.2492 16.8475 9.72319 17.0625 9.18014 17.0625H8.85055C8.30299 17.0625 7.78801 16.8449 7.40035 16.4597V16.4604L7.39523 16.4553V16.4546C7.00237 16.0691 6.78805 15.543 6.78805 15V14.8652C6.78805 14.6972 6.74441 14.5358 6.66573 14.4045L6.65841 14.3921C6.58523 14.263 6.46425 14.1423 6.31051 14.05V14.0493L5.99483 13.8662L5.98824 13.8625C5.85696 13.7838 5.69571 13.7402 5.52755 13.7402C5.35946 13.7403 5.19808 13.7838 5.06686 13.8625L5.04269 13.8765L4.92989 13.9365L4.92916 13.9351C4.45619 14.2055 3.89661 14.2749 3.37643 14.1321C2.85167 13.988 2.40901 13.6476 2.13277 13.177L2.13058 13.1741L1.96578 12.8892L1.96651 12.8884C1.68814 12.4121 1.61562 11.845 1.75997 11.3188C1.90351 10.796 2.24262 10.3546 2.71065 10.0781V10.0774L2.82345 10.01C2.96827 9.92309 3.08712 9.80363 3.17355 9.65479L3.17794 9.64819C3.25671 9.51691 3.30025 9.35566 3.30025 9.1875V8.80518C3.30025 8.64001 3.25816 8.48551 3.17794 8.35181C3.08567 8.19804 2.96428 8.0778 2.83517 8.00464L2.80074 7.98267L2.68795 7.90796V7.90723C2.22495 7.63249 1.89885 7.18706 1.75997 6.68115L1.75924 6.67896C1.61394 6.13926 1.69911 5.58275 1.96285 5.11597L1.96578 5.11084L2.13058 4.82593H2.13204C2.40502 4.34643 2.85931 4.00988 3.37643 3.86792L3.37936 3.86719C3.9142 3.72326 4.46502 3.80525 4.92916 4.06348H4.92989L5.04269 4.12354L5.06686 4.13745C5.19808 4.21619 5.35946 4.25973 5.52755 4.25977C5.69571 4.25977 5.85696 4.21622 5.98824 4.13745L5.99483 4.13379L6.31783 3.94629L6.32296 3.94336C6.45209 3.87019 6.57345 3.74926 6.66573 3.59546C6.74441 3.46423 6.78805 3.30282 6.78805 3.13477V3C6.78805 2.45265 7.00448 1.93741 7.38937 1.5498C7.77534 1.1534 8.30501 0.9375 8.85055 0.9375H9.18014C9.72739 0.9375 10.242 1.15479 10.6296 1.53955H10.6303C10.6312 1.54039 10.6317 1.54164 10.6325 1.54248C10.6334 1.54333 10.6346 1.54382 10.6355 1.54468H10.6347C11.028 1.93023 11.2426 2.45673 11.2426 3V3.13477Z" fill="#020617"/>
</svg>
