<svg width="140" height="15" viewBox="0 0 140 15" fill="none" xmlns="http://www.w3.org/2000/svg">
<g clip-path="url(#clip0_6570_16737)">
<path d="M1.63747 14.9996C0.734146 14.9996 0 14.2714 0 13.3753C0 12.604 0.55255 11.9343 1.31308 11.7834C2.10776 11.6249 2.68049 10.9321 2.68049 10.1269C2.68049 9.32166 2.10931 8.6304 1.31308 8.47028C0.55255 8.31787 0 7.64815 0 6.87837V4.87078C0 3.99168 0.720177 3.26347 1.60488 3.24653C2.51907 3.2296 3.25787 2.4983 3.27494 1.58996C3.29202 0.712406 4.02616 -0.00195312 4.91242 -0.00195312H6.93636C7.82262 -0.00195312 8.55676 0.712406 8.57384 1.58996C8.59091 2.49676 9.32816 3.22806 10.2439 3.24653C11.1286 3.26347 11.8488 3.99168 11.8488 4.87078V6.87837C11.8488 7.75746 11.1286 8.48568 10.2439 8.50261C9.32971 8.51955 8.59091 9.25084 8.57384 10.1592C8.55676 11.0367 7.82262 11.7511 6.93636 11.7511H4.97761C4.04945 11.7511 3.29357 12.487 3.27494 13.4077C3.25787 14.2852 2.52373 14.9996 1.63747 14.9996ZM4.97761 3.24807C4.03703 3.24807 3.27494 4.004 3.27494 4.93698V6.81525C3.27494 7.74823 4.03703 8.50415 4.97761 8.50415H6.87118C7.81175 8.50415 8.57384 7.74823 8.57384 6.81525V4.93698C8.57384 4.004 7.81175 3.24807 6.87118 3.24807H4.97761Z" fill="#010614"/>
<path d="M121.664 12.3505L114.992 5.89353V12.3505H112.602V2.64966H115.055L121.728 9.1066V2.64966H124.12V12.3505H121.664Z" fill="#010614"/>
<path d="M74.4618 12.5659C72.6039 12.5659 71.0938 11.0664 71.0938 9.22504V5.77641C71.0938 3.93355 72.6055 2.43555 74.4618 2.43555H79.4596C81.2802 2.43555 82.7687 3.87658 82.8261 5.66864H80.4312C80.3769 5.18367 79.9625 4.80648 79.4596 4.80648H74.4618C73.9232 4.80648 73.484 5.24218 73.484 5.77641V9.22504C73.484 9.75927 73.9232 10.195 74.4618 10.195H79.4596C79.9625 10.195 80.3769 9.81777 80.4312 9.33281H82.8261C82.7687 11.1249 81.2802 12.5659 79.4596 12.5659H74.4618Z" fill="#010614"/>
<path d="M88.3681 12.5659C86.5102 12.5659 85 11.0664 85 9.22504V5.77641C85 3.93355 86.5118 2.43555 88.3681 2.43555H93.3674C95.2253 2.43555 96.7355 3.93509 96.7355 5.77641V9.22504C96.7355 11.0679 95.2237 12.5659 93.3674 12.5659H88.3681ZM88.3681 4.80494C87.8295 4.80494 87.3902 5.24064 87.3902 5.77487V9.2235C87.3902 9.75773 87.8295 10.1934 88.3681 10.1934H93.3674C93.906 10.1934 94.3452 9.75773 94.3452 9.2235V5.77487C94.3452 5.24064 93.906 4.80494 93.3674 4.80494H88.3681Z" fill="#010614"/>
<path d="M102.274 12.3505C100.416 12.3505 98.9062 10.8509 98.9062 9.00961V2.64966H101.296V9.00961C101.296 9.54384 101.736 9.97954 102.274 9.97954H107.055C107.593 9.97954 108.033 9.54384 108.033 9.00961V2.64966H110.423V9.00961C110.423 10.8525 108.911 12.3505 107.055 12.3505H102.274Z" fill="#010614"/>
<path d="M130.639 12.3505V5.04522H126.293V2.67275H130.639V2.64966H133.031V2.67275H137.377V5.04522H133.031V12.3505H130.639Z" fill="#010614"/>
<path d="M31.3359 12.3505V2.64966H33.7277V9.97954H41.5504V12.3505H31.3359Z" fill="#010614"/>
<path d="M52.8506 12.3505V9.33292H46.1129V12.3505H43.7227V5.99052C43.7227 4.14766 45.2344 2.64966 47.0907 2.64966H51.8712C53.7291 2.64966 55.2393 4.1492 55.2393 5.99052V12.3505H52.849H52.8506ZM47.0907 5.02213C46.5521 5.02213 46.1129 5.45783 46.1129 5.99206V6.96199H52.8506V5.99206C52.8506 5.45783 52.4113 5.02213 51.8728 5.02213H47.0923H47.0907Z" fill="#010614"/>
<path d="M17.6445 12.3505V2.64966H25.7946C27.6525 2.64966 29.1627 4.1492 29.1627 5.99052C29.1627 7.83184 27.651 9.33138 25.7946 9.33138H20.0348V12.3489H17.6445V12.3505ZM20.0348 6.96199H25.7946C26.3332 6.96199 26.7725 6.52629 26.7725 5.99206C26.7725 5.45783 26.3332 5.02213 25.7946 5.02213H20.0348V6.96199Z" fill="#010614"/>
<path d="M61.7635 12.2443V8.48464L56.5469 2.54346H59.7163L62.9586 6.23534L66.201 2.54346H69.3704L64.1537 8.48464V12.2443H61.7635Z" fill="#010614"/>
</g>
<defs>
<clipPath id="clip0_6570_16737">
<rect width="140" height="15" fill="white"/>
</clipPath>
</defs>
</svg>
