<svg width="18" height="18" viewBox="0 0 18 18" fill="none" xmlns="http://www.w3.org/2000/svg">
<path d="M11.8132 1.51147L11.9092 1.54004L11.9788 1.57373C12.0415 1.6094 12.0806 1.64753 12.0916 1.65796C12.1168 1.68196 12.1354 1.70395 12.1458 1.71655C12.1669 1.74238 12.1841 1.76709 12.1948 1.7832C12.2178 1.81756 12.2421 1.85801 12.2651 1.89746C12.3125 1.97861 12.3731 2.08866 12.4417 2.21606C12.5796 2.47258 12.7605 2.8192 12.9521 3.19165C13.3359 3.93745 13.7698 4.79853 14.0098 5.27466L14.0354 5.32519H16.3125L16.875 5.88769V15.6377L16.3125 16.2002H1.3125L0.75 15.6377V5.88769L1.3125 5.32519H3.05713L8.02954 3.06421C8.93078 2.65673 9.78309 2.27366 10.415 1.99414C10.7305 1.85461 10.9935 1.73955 11.1812 1.66015C11.2742 1.62079 11.3535 1.58783 11.4126 1.56494C11.4407 1.55404 11.4721 1.54217 11.5012 1.53271C11.5144 1.52843 11.54 1.52098 11.5693 1.5144C11.5832 1.51131 11.6114 1.50514 11.647 1.50195C11.6547 1.50126 11.7233 1.49298 11.8132 1.51147ZM3.75 9.82519H4.875V11.7002H3.75V9.82519ZM3.75 6.45019H1.875V15.0752H3.75V13.5752H4.875V15.0752H15.75V6.45019H4.875V7.95019H3.75V6.45019ZM10.8699 3.02246C10.2423 3.30002 9.39371 3.6817 8.49316 4.08886C7.57952 4.50195 6.61424 4.94253 5.77368 5.32519H12.7734C12.5352 4.85347 12.2306 4.24866 11.9517 3.70654C11.7649 3.34354 11.5914 3.01105 11.4595 2.76538C11.2991 2.83451 11.0998 2.92076 10.8699 3.02246Z" fill="#020617"/>
</svg>
